<mxfile host="app.diagrams.net" modified="2023-10-31T18:06:50.166Z" agent="Mozilla/5.0 (Windows NT 10.0; Win64; x64) AppleWebKit/537.36 (KHTML, like Gecko) Chrome/116.0.5845.931 YaBrowser/23.9.3.931 Yowser/2.5 Safari/537.36" etag="RY3AYRnstB16ZghHI9Cu" version="22.0.8" type="github">
  <diagram id="C5RBs43oDa-KdzZeNtuy" name="Page-1">
    <mxGraphModel dx="636" dy="358" grid="1" gridSize="10" guides="1" tooltips="1" connect="1" arrows="1" fold="1" page="1" pageScale="1" pageWidth="827" pageHeight="1169" math="0" shadow="0">
      <root>
        <mxCell id="WIyWlLk6GJQsqaUBKTNV-0" />
        <mxCell id="WIyWlLk6GJQsqaUBKTNV-1" parent="WIyWlLk6GJQsqaUBKTNV-0" />
        <mxCell id="WIyWlLk6GJQsqaUBKTNV-2" value="" style="rounded=0;html=1;jettySize=auto;orthogonalLoop=1;fontSize=11;endArrow=block;endFill=0;endSize=8;strokeWidth=1;shadow=0;labelBackgroundColor=none;edgeStyle=orthogonalEdgeStyle;entryX=0.5;entryY=0;entryDx=0;entryDy=0;" parent="WIyWlLk6GJQsqaUBKTNV-1" source="WIyWlLk6GJQsqaUBKTNV-3" target="ZUDtytT54O4jhnoepPId-2" edge="1">
          <mxGeometry relative="1" as="geometry">
            <mxPoint x="414" y="120" as="targetPoint" />
          </mxGeometry>
        </mxCell>
        <mxCell id="WIyWlLk6GJQsqaUBKTNV-3" value="Начало" style="rounded=1;whiteSpace=wrap;html=1;fontSize=12;glass=0;strokeWidth=1;shadow=0;" parent="WIyWlLk6GJQsqaUBKTNV-1" vertex="1">
          <mxGeometry x="359" width="120" height="20" as="geometry" />
        </mxCell>
        <mxCell id="ZUDtytT54O4jhnoepPId-6" value="" style="edgeStyle=orthogonalEdgeStyle;shape=connector;rounded=0;orthogonalLoop=1;jettySize=auto;html=1;shadow=0;labelBackgroundColor=none;strokeColor=default;strokeWidth=1;align=center;verticalAlign=middle;fontFamily=Helvetica;fontSize=11;fontColor=default;endArrow=block;endFill=0;endSize=8;entryX=1;entryY=0.5;entryDx=0;entryDy=0;exitX=0.5;exitY=1;exitDx=0;exitDy=0;" edge="1" parent="WIyWlLk6GJQsqaUBKTNV-1" source="ZUDtytT54O4jhnoepPId-0" target="ZUDtytT54O4jhnoepPId-4">
          <mxGeometry relative="1" as="geometry" />
        </mxCell>
        <mxCell id="ZUDtytT54O4jhnoepPId-0" value="Купите компьютер" style="rounded=0;whiteSpace=wrap;html=1;" vertex="1" parent="WIyWlLk6GJQsqaUBKTNV-1">
          <mxGeometry x="480" y="130" width="120" height="40" as="geometry" />
        </mxCell>
        <mxCell id="ZUDtytT54O4jhnoepPId-1" value="да" style="rounded=0;html=1;jettySize=auto;orthogonalLoop=1;fontSize=12;endArrow=block;endFill=0;endSize=8;strokeWidth=1;shadow=0;labelBackgroundColor=none;edgeStyle=orthogonalEdgeStyle;exitX=0;exitY=0.5;exitDx=0;exitDy=0;fontFamily=Helvetica;verticalAlign=bottom;entryX=0;entryY=0.5;entryDx=0;entryDy=0;labelPosition=center;verticalLabelPosition=middle;align=center;" edge="1" parent="WIyWlLk6GJQsqaUBKTNV-1" source="ZUDtytT54O4jhnoepPId-2" target="ZUDtytT54O4jhnoepPId-4">
          <mxGeometry x="-0.8252" relative="1" as="geometry">
            <mxPoint x="410" y="280" as="sourcePoint" />
            <mxPoint x="230" y="90" as="targetPoint" />
            <Array as="points">
              <mxPoint x="280" y="90" />
              <mxPoint x="280" y="220" />
            </Array>
            <mxPoint as="offset" />
          </mxGeometry>
        </mxCell>
        <mxCell id="ZUDtytT54O4jhnoepPId-2" value="У вас есть компьютер?" style="rhombus;whiteSpace=wrap;html=1;" vertex="1" parent="WIyWlLk6GJQsqaUBKTNV-1">
          <mxGeometry x="362" y="50" width="114" height="80" as="geometry" />
        </mxCell>
        <mxCell id="ZUDtytT54O4jhnoepPId-3" value="нет" style="rounded=0;html=1;jettySize=auto;orthogonalLoop=1;fontSize=12;endArrow=block;endFill=0;endSize=8;strokeWidth=1;shadow=0;labelBackgroundColor=none;edgeStyle=orthogonalEdgeStyle;exitX=1;exitY=0.5;exitDx=0;exitDy=0;fontFamily=Helvetica;verticalAlign=bottom;entryX=0.5;entryY=0;entryDx=0;entryDy=0;" edge="1" parent="WIyWlLk6GJQsqaUBKTNV-1" source="ZUDtytT54O4jhnoepPId-2" target="ZUDtytT54O4jhnoepPId-0">
          <mxGeometry x="-0.4417" relative="1" as="geometry">
            <mxPoint x="366" y="100" as="sourcePoint" />
            <mxPoint x="600" y="90" as="targetPoint" />
            <mxPoint as="offset" />
          </mxGeometry>
        </mxCell>
        <mxCell id="ZUDtytT54O4jhnoepPId-8" value="" style="edgeStyle=orthogonalEdgeStyle;shape=connector;rounded=0;orthogonalLoop=1;jettySize=auto;html=1;shadow=0;labelBackgroundColor=none;strokeColor=default;strokeWidth=1;align=center;verticalAlign=middle;fontFamily=Helvetica;fontSize=11;fontColor=default;endArrow=block;endFill=0;endSize=8;" edge="1" parent="WIyWlLk6GJQsqaUBKTNV-1" source="ZUDtytT54O4jhnoepPId-4" target="ZUDtytT54O4jhnoepPId-7">
          <mxGeometry relative="1" as="geometry" />
        </mxCell>
        <mxCell id="ZUDtytT54O4jhnoepPId-4" value="Включите компьютер" style="rounded=0;whiteSpace=wrap;html=1;" vertex="1" parent="WIyWlLk6GJQsqaUBKTNV-1">
          <mxGeometry x="359" y="200" width="120" height="40" as="geometry" />
        </mxCell>
        <mxCell id="ZUDtytT54O4jhnoepPId-10" value="нет" style="edgeStyle=orthogonalEdgeStyle;shape=connector;rounded=0;orthogonalLoop=1;jettySize=auto;html=1;shadow=0;labelBackgroundColor=none;strokeColor=default;strokeWidth=1;align=center;verticalAlign=bottom;fontFamily=Helvetica;fontSize=12;fontColor=default;endArrow=block;endFill=0;endSize=8;entryX=0.5;entryY=0;entryDx=0;entryDy=0;" edge="1" parent="WIyWlLk6GJQsqaUBKTNV-1" source="ZUDtytT54O4jhnoepPId-7" target="ZUDtytT54O4jhnoepPId-9">
          <mxGeometry x="-0.4681" relative="1" as="geometry">
            <mxPoint as="offset" />
          </mxGeometry>
        </mxCell>
        <mxCell id="ZUDtytT54O4jhnoepPId-12" value="да" style="edgeStyle=orthogonalEdgeStyle;shape=connector;rounded=0;orthogonalLoop=1;jettySize=auto;html=1;shadow=0;labelBackgroundColor=none;strokeColor=default;strokeWidth=1;align=center;verticalAlign=bottom;fontFamily=Helvetica;fontSize=12;fontColor=default;endArrow=block;endFill=0;endSize=8;exitX=0;exitY=0.5;exitDx=0;exitDy=0;entryX=0;entryY=0.5;entryDx=0;entryDy=0;" edge="1" parent="WIyWlLk6GJQsqaUBKTNV-1" source="ZUDtytT54O4jhnoepPId-7" target="ZUDtytT54O4jhnoepPId-11">
          <mxGeometry x="-0.8188" relative="1" as="geometry">
            <mxPoint x="260" y="500" as="targetPoint" />
            <Array as="points">
              <mxPoint x="280" y="310" />
              <mxPoint x="280" y="440" />
            </Array>
            <mxPoint as="offset" />
          </mxGeometry>
        </mxCell>
        <mxCell id="ZUDtytT54O4jhnoepPId-7" value="У вас есть загрузочный носитель?" style="rhombus;whiteSpace=wrap;html=1;rounded=0;" vertex="1" parent="WIyWlLk6GJQsqaUBKTNV-1">
          <mxGeometry x="362" y="270" width="114" height="80" as="geometry" />
        </mxCell>
        <mxCell id="ZUDtytT54O4jhnoepPId-9" value="Приобретите загрузочный носитель" style="whiteSpace=wrap;html=1;rounded=0;" vertex="1" parent="WIyWlLk6GJQsqaUBKTNV-1">
          <mxGeometry x="480" y="350" width="120" height="40" as="geometry" />
        </mxCell>
        <mxCell id="ZUDtytT54O4jhnoepPId-15" value="" style="edgeStyle=orthogonalEdgeStyle;shape=connector;rounded=0;orthogonalLoop=1;jettySize=auto;html=1;shadow=0;labelBackgroundColor=none;strokeColor=default;strokeWidth=1;align=center;verticalAlign=middle;fontFamily=Helvetica;fontSize=11;fontColor=default;endArrow=block;endFill=0;endSize=8;" edge="1" parent="WIyWlLk6GJQsqaUBKTNV-1" source="ZUDtytT54O4jhnoepPId-11" target="ZUDtytT54O4jhnoepPId-14">
          <mxGeometry relative="1" as="geometry" />
        </mxCell>
        <mxCell id="ZUDtytT54O4jhnoepPId-11" value="Вставьте носитель в компьютер" style="whiteSpace=wrap;html=1;rounded=0;" vertex="1" parent="WIyWlLk6GJQsqaUBKTNV-1">
          <mxGeometry x="359" y="420" width="120" height="40" as="geometry" />
        </mxCell>
        <mxCell id="ZUDtytT54O4jhnoepPId-13" value="" style="edgeStyle=orthogonalEdgeStyle;shape=connector;rounded=0;orthogonalLoop=1;jettySize=auto;html=1;shadow=0;labelBackgroundColor=none;strokeColor=default;strokeWidth=1;align=center;verticalAlign=middle;fontFamily=Helvetica;fontSize=11;fontColor=default;endArrow=block;endFill=0;endSize=8;entryX=1;entryY=0.5;entryDx=0;entryDy=0;exitX=0.5;exitY=1;exitDx=0;exitDy=0;" edge="1" parent="WIyWlLk6GJQsqaUBKTNV-1" source="ZUDtytT54O4jhnoepPId-9" target="ZUDtytT54O4jhnoepPId-11">
          <mxGeometry relative="1" as="geometry">
            <mxPoint x="481" y="320" as="sourcePoint" />
            <mxPoint x="550" y="360" as="targetPoint" />
          </mxGeometry>
        </mxCell>
        <mxCell id="ZUDtytT54O4jhnoepPId-17" value="" style="edgeStyle=orthogonalEdgeStyle;shape=connector;rounded=0;orthogonalLoop=1;jettySize=auto;html=1;shadow=0;labelBackgroundColor=none;strokeColor=default;strokeWidth=1;align=center;verticalAlign=middle;fontFamily=Helvetica;fontSize=11;fontColor=default;endArrow=block;endFill=0;endSize=8;" edge="1" parent="WIyWlLk6GJQsqaUBKTNV-1" source="ZUDtytT54O4jhnoepPId-14" target="ZUDtytT54O4jhnoepPId-16">
          <mxGeometry relative="1" as="geometry" />
        </mxCell>
        <mxCell id="ZUDtytT54O4jhnoepPId-14" value="Перезагрузите компьютер" style="whiteSpace=wrap;html=1;rounded=0;" vertex="1" parent="WIyWlLk6GJQsqaUBKTNV-1">
          <mxGeometry x="359" y="490" width="120" height="40" as="geometry" />
        </mxCell>
        <mxCell id="ZUDtytT54O4jhnoepPId-19" value="" style="edgeStyle=orthogonalEdgeStyle;shape=connector;rounded=0;orthogonalLoop=1;jettySize=auto;html=1;shadow=0;labelBackgroundColor=none;strokeColor=default;strokeWidth=1;align=center;verticalAlign=middle;fontFamily=Helvetica;fontSize=11;fontColor=default;endArrow=block;endFill=0;endSize=8;" edge="1" parent="WIyWlLk6GJQsqaUBKTNV-1" source="ZUDtytT54O4jhnoepPId-16" target="ZUDtytT54O4jhnoepPId-18">
          <mxGeometry relative="1" as="geometry" />
        </mxCell>
        <mxCell id="ZUDtytT54O4jhnoepPId-16" value="Загрузите ОС с носителя" style="whiteSpace=wrap;html=1;rounded=0;" vertex="1" parent="WIyWlLk6GJQsqaUBKTNV-1">
          <mxGeometry x="359" y="560" width="120" height="40" as="geometry" />
        </mxCell>
        <mxCell id="ZUDtytT54O4jhnoepPId-21" value="" style="edgeStyle=orthogonalEdgeStyle;shape=connector;rounded=0;orthogonalLoop=1;jettySize=auto;html=1;shadow=0;labelBackgroundColor=none;strokeColor=default;strokeWidth=1;align=center;verticalAlign=middle;fontFamily=Helvetica;fontSize=11;fontColor=default;endArrow=block;endFill=0;endSize=8;" edge="1" parent="WIyWlLk6GJQsqaUBKTNV-1" source="ZUDtytT54O4jhnoepPId-18" target="ZUDtytT54O4jhnoepPId-20">
          <mxGeometry relative="1" as="geometry" />
        </mxCell>
        <mxCell id="ZUDtytT54O4jhnoepPId-18" value="Настроить параметры установки" style="whiteSpace=wrap;html=1;rounded=0;" vertex="1" parent="WIyWlLk6GJQsqaUBKTNV-1">
          <mxGeometry x="359" y="630" width="120" height="40" as="geometry" />
        </mxCell>
        <mxCell id="ZUDtytT54O4jhnoepPId-20" value="Выберете диск для установки ОС" style="whiteSpace=wrap;html=1;rounded=0;" vertex="1" parent="WIyWlLk6GJQsqaUBKTNV-1">
          <mxGeometry x="359" y="700" width="120" height="40" as="geometry" />
        </mxCell>
        <mxCell id="ZUDtytT54O4jhnoepPId-22" value="" style="edgeStyle=orthogonalEdgeStyle;shape=connector;rounded=0;orthogonalLoop=1;jettySize=auto;html=1;shadow=0;labelBackgroundColor=none;strokeColor=default;strokeWidth=1;align=center;verticalAlign=middle;fontFamily=Helvetica;fontSize=11;fontColor=default;endArrow=block;endFill=0;endSize=8;exitX=0.5;exitY=1;exitDx=0;exitDy=0;" edge="1" parent="WIyWlLk6GJQsqaUBKTNV-1" target="ZUDtytT54O4jhnoepPId-25" source="ZUDtytT54O4jhnoepPId-20">
          <mxGeometry relative="1" as="geometry">
            <mxPoint x="414" y="769" as="sourcePoint" />
          </mxGeometry>
        </mxCell>
        <mxCell id="ZUDtytT54O4jhnoepPId-23" value="нет" style="edgeStyle=orthogonalEdgeStyle;shape=connector;rounded=0;orthogonalLoop=1;jettySize=auto;html=1;shadow=0;labelBackgroundColor=none;strokeColor=default;strokeWidth=1;align=center;verticalAlign=bottom;fontFamily=Helvetica;fontSize=12;fontColor=default;endArrow=block;endFill=0;endSize=8;entryX=0.5;entryY=0;entryDx=0;entryDy=0;" edge="1" parent="WIyWlLk6GJQsqaUBKTNV-1" source="ZUDtytT54O4jhnoepPId-25" target="ZUDtytT54O4jhnoepPId-26">
          <mxGeometry x="-0.5387" relative="1" as="geometry">
            <mxPoint as="offset" />
          </mxGeometry>
        </mxCell>
        <mxCell id="ZUDtytT54O4jhnoepPId-24" value="да" style="edgeStyle=orthogonalEdgeStyle;shape=connector;rounded=0;orthogonalLoop=1;jettySize=auto;html=1;shadow=0;labelBackgroundColor=none;strokeColor=default;strokeWidth=1;align=center;verticalAlign=bottom;fontFamily=Helvetica;fontSize=12;fontColor=default;endArrow=block;endFill=0;endSize=8;exitX=0;exitY=0.5;exitDx=0;exitDy=0;entryX=0;entryY=0.5;entryDx=0;entryDy=0;" edge="1" parent="WIyWlLk6GJQsqaUBKTNV-1" source="ZUDtytT54O4jhnoepPId-25" target="ZUDtytT54O4jhnoepPId-27">
          <mxGeometry x="-0.8548" relative="1" as="geometry">
            <mxPoint x="260" y="1000" as="targetPoint" />
            <Array as="points">
              <mxPoint x="280" y="810" />
              <mxPoint x="280" y="940" />
            </Array>
            <mxPoint as="offset" />
          </mxGeometry>
        </mxCell>
        <mxCell id="ZUDtytT54O4jhnoepPId-25" value="Установка закончилась?" style="rhombus;whiteSpace=wrap;html=1;rounded=0;" vertex="1" parent="WIyWlLk6GJQsqaUBKTNV-1">
          <mxGeometry x="362" y="770" width="114" height="80" as="geometry" />
        </mxCell>
        <mxCell id="ZUDtytT54O4jhnoepPId-26" value="Дождитесь конца установки" style="whiteSpace=wrap;html=1;rounded=0;" vertex="1" parent="WIyWlLk6GJQsqaUBKTNV-1">
          <mxGeometry x="480" y="850" width="120" height="40" as="geometry" />
        </mxCell>
        <mxCell id="ZUDtytT54O4jhnoepPId-30" value="" style="edgeStyle=orthogonalEdgeStyle;shape=connector;rounded=0;orthogonalLoop=1;jettySize=auto;html=1;shadow=0;labelBackgroundColor=none;strokeColor=default;strokeWidth=1;align=center;verticalAlign=middle;fontFamily=Helvetica;fontSize=11;fontColor=default;endArrow=block;endFill=0;endSize=8;entryX=0.5;entryY=0;entryDx=0;entryDy=0;" edge="1" parent="WIyWlLk6GJQsqaUBKTNV-1" source="ZUDtytT54O4jhnoepPId-27" target="ZUDtytT54O4jhnoepPId-29">
          <mxGeometry relative="1" as="geometry">
            <mxPoint x="419" y="1010" as="targetPoint" />
          </mxGeometry>
        </mxCell>
        <mxCell id="ZUDtytT54O4jhnoepPId-27" value="Перезагрузите компьтер" style="whiteSpace=wrap;html=1;rounded=0;" vertex="1" parent="WIyWlLk6GJQsqaUBKTNV-1">
          <mxGeometry x="361" y="920" width="120" height="40" as="geometry" />
        </mxCell>
        <mxCell id="ZUDtytT54O4jhnoepPId-28" value="" style="edgeStyle=orthogonalEdgeStyle;shape=connector;rounded=0;orthogonalLoop=1;jettySize=auto;html=1;shadow=0;labelBackgroundColor=none;strokeColor=default;strokeWidth=1;align=center;verticalAlign=middle;fontFamily=Helvetica;fontSize=11;fontColor=default;endArrow=block;endFill=0;endSize=8;entryX=1;entryY=0.5;entryDx=0;entryDy=0;exitX=0.5;exitY=1;exitDx=0;exitDy=0;" edge="1" parent="WIyWlLk6GJQsqaUBKTNV-1" source="ZUDtytT54O4jhnoepPId-26" target="ZUDtytT54O4jhnoepPId-27">
          <mxGeometry relative="1" as="geometry">
            <mxPoint x="481" y="820" as="sourcePoint" />
            <mxPoint x="550" y="860" as="targetPoint" />
          </mxGeometry>
        </mxCell>
        <mxCell id="ZUDtytT54O4jhnoepPId-29" value="Проверьте работоспособность ОС" style="whiteSpace=wrap;html=1;rounded=0;" vertex="1" parent="WIyWlLk6GJQsqaUBKTNV-1">
          <mxGeometry x="361" y="990" width="120" height="40" as="geometry" />
        </mxCell>
        <mxCell id="ZUDtytT54O4jhnoepPId-32" value="Конец" style="rounded=1;whiteSpace=wrap;html=1;fontSize=12;glass=0;strokeWidth=1;shadow=0;" vertex="1" parent="WIyWlLk6GJQsqaUBKTNV-1">
          <mxGeometry x="361" y="1060" width="120" height="20" as="geometry" />
        </mxCell>
        <mxCell id="ZUDtytT54O4jhnoepPId-33" value="" style="edgeStyle=orthogonalEdgeStyle;shape=connector;rounded=0;orthogonalLoop=1;jettySize=auto;html=1;shadow=0;labelBackgroundColor=none;strokeColor=default;strokeWidth=1;align=center;verticalAlign=middle;fontFamily=Helvetica;fontSize=11;fontColor=default;endArrow=block;endFill=0;endSize=8;entryX=0.5;entryY=0;entryDx=0;entryDy=0;exitX=0.5;exitY=1;exitDx=0;exitDy=0;" edge="1" parent="WIyWlLk6GJQsqaUBKTNV-1" source="ZUDtytT54O4jhnoepPId-29" target="ZUDtytT54O4jhnoepPId-32">
          <mxGeometry relative="1" as="geometry">
            <mxPoint x="429" y="980" as="sourcePoint" />
            <mxPoint x="429" y="1016" as="targetPoint" />
          </mxGeometry>
        </mxCell>
      </root>
    </mxGraphModel>
  </diagram>
</mxfile>
